<svg xmlns="http://www.w3.org/2000/svg" width="14" height="26" viewBox="0 0 14 26">
  <defs>
    <style>
      .cls-1 {
        fill: #4867b8;
        fill-rule: evenodd;
      }
    </style>
  </defs>
  <path class="cls-1" d="M1303.47,39.005L1300.11,39c-3.77,0-6.21,2.512-6.21,6.4v2.95h-3.37a0.526,0.526,0,0,0-.53.53v4.274a0.525,0.525,0,0,0,.53.53h3.37V64.47a0.532,0.532,0,0,0,.53.53h4.41a0.523,0.523,0,0,0,.52-0.53V53.684h3.95a0.532,0.532,0,0,0,.53-0.53V48.879a0.523,0.523,0,0,0-.15-0.375,0.544,0.544,0,0,0-.38-0.155h-3.95v-2.5c0-1.2.29-1.812,1.85-1.812h2.26a0.532,0.532,0,0,0,.53-0.53V39.536A0.533,0.533,0,0,0,1303.47,39.005Z" transform="translate(-1290 -39)"/>
</svg>
