<svg xmlns="http://www.w3.org/2000/svg" width="27" height="27" viewBox="0 0 27 27">
  <defs>
    <style>
      .cls-1 {
        fill: #4867b8;
        fill-rule: evenodd;
      }
    </style>
  </defs>
  <path class="cls-1" d="M1268.19,45.892a13.692,13.692,0,0,0-4.91-5.036,13.312,13.312,0,0,0-13.56,0,14.069,14.069,0,0,0-4.14,20.117,13.206,13.206,0,0,0,6.65,5,0.768,0.768,0,0,0,.7-0.126,0.723,0.723,0,0,0,.23-0.54c0-.036,0-0.36-0.01-0.973s-0.01-1.147-.01-1.6l-0.4.072a5.112,5.112,0,0,1-.98.063,7.242,7.242,0,0,1-1.22-.126,2.752,2.752,0,0,1-1.18-.54,2.285,2.285,0,0,1-.77-1.108l-0.18-.415a4.267,4.267,0,0,0-.55-0.919,2.176,2.176,0,0,0-.76-0.685l-0.13-.09a1.37,1.37,0,0,1-.23-0.216,0.837,0.837,0,0,1-.15-0.252,0.149,0.149,0,0,1,.08-0.208,1.152,1.152,0,0,1,.51-0.081l0.35,0.054a2.558,2.558,0,0,1,.88.432,3.025,3.025,0,0,1,.85.937,3.152,3.152,0,0,0,.97,1.126,2.045,2.045,0,0,0,1.15.387,5,5,0,0,0,1.01-.09,3.513,3.513,0,0,0,.79-0.27,2.913,2.913,0,0,1,.86-1.856,11.629,11.629,0,0,1-1.8-.324,7.033,7.033,0,0,1-1.66-.7,4.788,4.788,0,0,1-1.41-1.207,5.756,5.756,0,0,1-.92-1.892,9.214,9.214,0,0,1-.36-2.7,5.312,5.312,0,0,1,1.39-3.712,4.9,4.9,0,0,1,.12-3.676,2.406,2.406,0,0,1,1.51.243,10.356,10.356,0,0,1,1.47.694c0.31,0.192.56,0.355,0.74,0.486a12.429,12.429,0,0,1,6.76,0l0.66-.432a9.547,9.547,0,0,1,1.62-.793,2.244,2.244,0,0,1,1.42-.2,4.865,4.865,0,0,1,.14,3.676,5.312,5.312,0,0,1,1.39,3.712,9.3,9.3,0,0,1-.36,2.712,5.64,5.64,0,0,1-.93,1.892,4.887,4.887,0,0,1-1.42,1.2,7.16,7.16,0,0,1-1.65.7,11.979,11.979,0,0,1-1.81.325,3.253,3.253,0,0,1,.92,2.558v3.8a0.714,0.714,0,0,0,.22.54,0.74,0.74,0,0,0,.69.126,13.205,13.205,0,0,0,6.65-5A14.168,14.168,0,0,0,1268.19,45.892Z" transform="translate(-1243 -39)"/>
</svg>
