<svg xmlns="http://www.w3.org/2000/svg" width="26" height="26" viewBox="0 0 26 26">
  <defs>
    <style>
      .cls-1 {
        fill: #4867b8;
        fill-rule: evenodd;
      }
    </style>
  </defs>
  <path class="cls-1" d="M1207.88,41.832a2.783,2.783,0,0,1-2.99,2.817A2.821,2.821,0,1,1,1207.88,41.832ZM1202.14,65V46.873h5.56V65h-5.56Zm8.89-12.344c0-2.261-.08-4.151-0.15-5.783h4.83l0.25,2.521h0.11a6.409,6.409,0,0,1,5.52-2.929c3.66,0,6.4,2.484,6.4,7.822V65h-5.56V54.954c0-2.336-.8-3.929-2.81-3.929a3.048,3.048,0,0,0-2.85,2.113,4.011,4.011,0,0,0-.19,1.409V65h-5.55V52.656Z" transform="translate(-1202 -39)"/>
</svg>
