<svg xmlns="http://www.w3.org/2000/svg" width="31" height="20" viewBox="0 0 31 20">
  <defs>
    <style>
      .cls-1 {
        fill: #4867b8;
        fill-rule: evenodd;
      }
    </style>
  </defs>
  <path class="cls-1" d="M1156.81,44.985a2.011,2.011,0,0,0-.91.122,0.169,0.169,0,0,0-.06.275,3.723,3.723,0,0,0,.61.519,3.538,3.538,0,0,1,.36.305l13.69,10.5,13.68-10.435,0.31-.305a6.992,6.992,0,0,0,.63-0.519,0.184,0.184,0,0,0-.03-0.305,1.651,1.651,0,0,0-.91-0.153h-27.37Zm-1.82,2.441v15.5a2.221,2.221,0,0,0,.55,1.373,1.454,1.454,0,0,0,1.09.7h27.73a1.454,1.454,0,0,0,1.09-.7,2.221,2.221,0,0,0,.55-1.373v-15.5l-15.5,11.96Z" transform="translate(-1155 -45)"/>
</svg>
